<?xml version="1.0" encoding="utf-8"?>
<!-- Generator: Adobe Illustrator 24.0.1, SVG Export Plug-In . SVG Version: 6.00 Build 0)  -->
<svg version="1.1" id="Слой_1" xmlns="http://www.w3.org/2000/svg" xmlns:xlink="http://www.w3.org/1999/xlink" x="0px" y="0px"
	 viewBox="0 0 73 77" style="enable-background:new 0 0 73 77;" xml:space="preserve">
<style type="text/css">
	.st0{fill:#FF699F;}
</style>
<g>
	<path class="st0" d="M64.5,73.2H50.6v-2.8h11.1V3.7c0-0.5-0.4-0.9-0.9-0.9H11.5c-0.5,0-0.9,0.4-0.9,0.9v66.7h11.2v2.8h-14V3.7
		C7.8,1.7,9.4,0,11.5,0h49.3c2.1,0,3.7,1.7,3.7,3.7V73.2z"/>
	<path class="st0" d="M57.2,73.2h-6.6v-2.8h3.8V10.2c0-0.1-0.1-0.1-0.1-0.1H18c-0.1,0-0.1,0.1-0.1,0.1v60.3h3.8v2.8H15V10.2
		c0-1.6,1.3-2.9,2.9-2.9h36.3c1.6,0,2.9,1.3,2.9,2.9V73.2z"/>
	<path class="st0" d="M49.6,76.2H22.7c-1.3,0-2.4-1.1-2.4-2.4v-4c0-1.3,1.1-2.4,2.4-2.4h26.9c1.3,0,2.4,1.1,2.4,2.4v4
		C52,75.2,50.9,76.2,49.6,76.2z M23.1,73.4h26.1v-3.2H23.1V73.4z"/>
	<path class="st0" d="M40.6,25h-8.9c-1.2,0-2.1-1-2.1-2.1v-4.5c0-1.2,1-2.2,2.1-2.2h8.9c1.2,0,2.1,1,2.1,2.2v4.5
		C42.7,24.1,41.7,25,40.6,25z M32.3,22.2h7.6V19h-7.6V22.2z"/>
	<path class="st0" d="M51.8,52.5h-3.9c-1.2,0-2.1-0.9-2.1-2.1V37.9c0-1.2,0.9-2.1,2.1-2.1h3.9c1.2,0,2.1,0.9,2.1,2.1v12.5
		C53.9,51.5,52.9,52.5,51.8,52.5z M48.6,49.7h2.5v-11h-2.5V49.7z"/>
	<path class="st0" d="M10.6,73.2H2c-1.1,0-2-0.9-2-2v-6.6c0-1.1,0.9-2,2-2h6.6c1.1,0,2,0.9,2,2L10.6,73.2L10.6,73.2z M2.8,70.4h5v-5
		h-5V70.4z"/>
	<path class="st0" d="M70.1,73.2h-8.4v-8.4c0-1.2,1-2.2,2.2-2.2h6.2c1.2,0,2.2,1,2.2,2.2v6.3C72.2,72.2,71.3,73.2,70.1,73.2z
		 M64.5,70.4h5v-5h-5V70.4z"/>
	<path class="st0" d="M36.1,32.8c-1.9,0-3.4-1.5-3.4-3.4s1.5-3.4,3.4-3.4c1.9,0,3.4,1.5,3.4,3.4C39.6,31.2,38,32.8,36.1,32.8z
		 M36.1,28.7c-0.4,0-0.6,0.3-0.6,0.6s0.3,0.6,0.6,0.6c0.3,0,0.6-0.3,0.6-0.6C36.8,29,36.5,28.7,36.1,28.7z"/>
</g>
</svg>
